<?xml version="1.0" encoding="UTF-8" standalone="no"?>
<!-- Created with Inkscape (http://www.inkscape.org/) -->

<svg
   xmlns:dc="http://purl.org/dc/elements/1.1/"
   xmlns:cc="http://creativecommons.org/ns#"
   xmlns:rdf="http://www.w3.org/1999/02/22-rdf-syntax-ns#"
   xmlns:svg="http://www.w3.org/2000/svg"
   xmlns="http://www.w3.org/2000/svg"
   xmlns:sodipodi="http://sodipodi.sourceforge.net/DTD/sodipodi-0.dtd"
   xmlns:inkscape="http://www.inkscape.org/namespaces/inkscape"
   width="74.254181mm"
   height="17.008474mm"
   viewBox="0 0 74.254181 17.008474"
   version="1.1"
   id="svg8"
   inkscape:version="0.92.1 r"
   sodipodi:docname="logo.svg">
  <defs
     id="defs2" />
  <sodipodi:namedview
     id="base"
     pagecolor="#ffffff"
     bordercolor="#666666"
     borderopacity="1.0"
     inkscape:pageopacity="0.0"
     inkscape:pageshadow="2"
     inkscape:zoom="0.98994949"
     inkscape:cx="379.37633"
     inkscape:cy="-31.956411"
     inkscape:document-units="mm"
     inkscape:current-layer="layer1"
     showgrid="false"
     fit-margin-top="0"
     fit-margin-left="0"
     fit-margin-right="0"
     fit-margin-bottom="0"
     inkscape:window-width="1600"
     inkscape:window-height="810"
     inkscape:window-x="0"
     inkscape:window-y="28"
     inkscape:window-maximized="1" />
  <metadata
     id="metadata5">
    <rdf:RDF>
      <cc:Work
         rdf:about="">
        <dc:format>image/svg+xml</dc:format>
        <dc:type
           rdf:resource="http://purl.org/dc/dcmitype/StillImage" />
        <dc:title></dc:title>
      </cc:Work>
    </rdf:RDF>
  </metadata>
  <g
     inkscape:label="Calque 1"
     inkscape:groupmode="layer"
     id="layer1"
     transform="translate(-43.841818,-116.94291)">
    <g
       id="g8485">
      <g
         aria-label="Sounton"
         style="font-style:normal;font-variant:normal;font-weight:normal;font-stretch:normal;font-size:16.93333244px;line-height:6.61458302px;font-family:Allura;-inkscape-font-specification:'Allura, Normal';font-variant-ligatures:normal;font-variant-caps:normal;font-variant-numeric:normal;font-feature-settings:normal;text-align:start;letter-spacing:0px;word-spacing:0px;writing-mode:lr-tb;text-anchor:start;fill:#4d4d4d;fill-opacity:1;stroke:none;stroke-width:0.26458332px;stroke-linecap:butt;stroke-linejoin:miter;stroke-opacity:1"
         id="text8427">
        <path
           d="m 54.526751,121.41215 q 0,0.37253 -0.3048,0.8636 -0.254,0.4572 -0.575733,0.62653 -0.3048,0.16934 -0.3048,-0.0339 0,-0.0169 0.186266,-0.2032 0.5588,-0.52494 0.5588,-0.8636 0,-0.72814 -1.439333,-0.72814 -0.6096,0 -1.608666,0.23707 -0.999067,0.22013 -1.9304,0.72813 -1.083734,0.59267 -1.083734,1.03294 0,0.3556 0.6604,0.67733 0.3556,0.16933 1.405467,0.57573 1.0668,0.38947 1.710266,0.69427 0.6604,0.28787 1.236134,0.82973 0.592666,0.54187 0.592666,1.20227 0,0.6604 -0.778933,1.43933 -1.185333,1.13454 -3.081866,1.8796 -1.896534,0.762 -3.2512,0.762 -2.675467,0 -2.675467,-1.50706 0,-1.50707 1.642533,-2.55694 1.354667,-0.93133 2.8448,-0.93133 0.3556,0 0.321734,0.11853 -0.03387,0.11854 -0.508,0.13547 -0.474134,0 -1.2192,0.32173 -0.745067,0.3048 -1.388534,0.89747 -0.846666,0.762 -0.846666,1.524 0,0.47413 0.4572,0.84667 0.4572,0.37253 1.744133,0.37253 1.286933,0 2.54,-0.4064 2.709333,-0.89747 3.386666,-1.96427 0.270934,-0.38946 0.270934,-0.6604 0,-0.77893 -0.948267,-1.2192 -1.100666,-0.508 -3.081866,-1.1684 -0.762,-0.254 -1.303867,-0.6604 -0.524933,-0.42333 -0.524933,-0.99906 0,-0.59267 0.626533,-1.15147 0.643467,-0.57573 1.540933,-0.9144 1.9304,-0.72813 3.268133,-0.72813 1.862667,0 1.862667,0.93133 z"
           style="font-style:normal;font-variant:normal;font-weight:normal;font-stretch:normal;font-size:16.93333244px;font-family:Allura;-inkscape-font-specification:'Allura, Normal';font-variant-ligatures:normal;font-variant-caps:normal;font-variant-numeric:normal;font-feature-settings:normal;text-align:start;writing-mode:lr-tb;text-anchor:start;fill:#4d4d4d;stroke-width:0.26458332px"
           id="path8487" />
        <path
           d="m 57.808378,128.49028 q 0.3048,-0.62653 0.3048,-0.9652 0,-0.33866 -0.08467,-0.52493 -0.06773,-0.2032 0.06773,-0.33867 0.1524,-0.13546 0.372533,-0.1016 0.338667,0.0847 0.338667,0.762 0,0.67734 -0.795867,1.778 0.01693,0.4572 0.474133,0.4572 0.4572,0 1.388534,-0.98213 0.440266,-0.508 0.541866,-0.6604 0.118534,-0.1524 0.2032,-0.1016 0.08467,0.0339 0.08467,0.0677 0,0.16934 -0.6096,0.88054 -0.9652,1.18533 -1.710267,1.18533 -0.491066,0 -0.694266,-0.42333 -0.338667,0.3556 -0.6604,0.6604 -0.6604,0.5588 -1.4732,0.5588 -0.4572,0 -0.762,-0.22014 -0.592667,-0.3556 -0.592667,-1.27 0,-0.99906 0.677334,-2.032 0.389466,-0.6096 0.9144,-1.0668 0.829733,-0.72813 1.574799,-0.72813 0.186267,0 0.3556,0.0508 0.508,0.16933 0.508,0.64347 0,0.38946 -0.2032,0.38946 -0.08467,-0.0339 -0.08467,-0.254 0,-0.3048 -0.338667,-0.3048 -0.592667,0 -1.524,1.08374 -0.931333,1.08373 -1.1176,2.1844 -0.03387,0.18626 -0.03387,0.42333 0,0.22013 0.1524,0.52493 0.1524,0.28787 0.5588,0.28787 0.423333,0 0.914399,-0.37253 0.491067,-0.37254 0.880534,-0.94827 l -0.0508,-0.1016 q -0.06773,-0.27093 0.06773,-0.44027 0.135467,-0.16933 0.3556,-0.1016 z"
           style="font-style:normal;font-variant:normal;font-weight:normal;font-stretch:normal;font-size:16.93333244px;font-family:Allura;-inkscape-font-specification:'Allura, Normal';font-variant-ligatures:normal;font-variant-caps:normal;font-variant-numeric:normal;font-feature-settings:normal;text-align:start;writing-mode:lr-tb;text-anchor:start;fill:#4d4d4d;stroke-width:0.26458332px"
           id="path8489" />
        <path
           d="m 68.21497,127.98228 q -0.254,0.4572 -0.9144,1.1684 -0.6604,0.7112 -1.185334,1.10067 -0.677333,0.49107 -1.4732,0.49107 -0.1524,0 -0.4064,-0.1524 -0.237066,-0.13547 -0.321733,-0.4064 -0.08467,-0.27094 -0.08467,-0.52494 0,-0.88053 0.338667,-1.74413 -0.0508,0.0339 -0.474133,0.72813 -0.4064,0.67734 -1.016,1.28694 -0.592667,0.6096 -1.202267,0.6096 -0.287866,0 -0.6604,-0.1524 -0.677333,-0.3048 -0.677333,-1.1176 0,-0.99907 0.677333,-2.04894 0.694267,-1.0668 0.880534,-1.13453 0.253999,-0.0677 0.474133,-0.0677 0.237066,0 0.474133,0.1016 0.237067,0.0847 -0.06773,0.3048 -1.1684,1.0668 -1.659467,2.37066 -0.186266,0.508 -0.186266,0.8636 0,0.33867 0.169333,0.44027 0.186267,0.1016 0.3556,0.1016 0.4064,0 1.100666,-0.5588 0.7112,-0.57573 1.947334,-2.37067 0.169333,-0.254 0.592666,-0.98213 0.423334,-0.74507 0.508,-0.88053 0.270934,0 0.626534,0.13546 0.372533,0.11854 0.254,0.32174 -0.8128,1.35466 -1.151467,1.99813 -0.321733,0.64347 -0.440267,1.50707 -0.01693,0.1524 -0.01693,0.38946 0,0.23707 0.135467,0.38947 0.254,0.27093 0.694266,0.0339 0.4572,-0.254 1.236134,-0.94827 0.778933,-0.7112 1.253066,-1.38853 0.06773,-0.0847 0.1524,-0.0339 0.1016,0.0339 0.1016,0.0847 0,0.0339 -0.03387,0.0847 z"
           style="font-style:normal;font-variant:normal;font-weight:normal;font-stretch:normal;font-size:16.93333244px;font-family:Allura;-inkscape-font-specification:'Allura, Normal';font-variant-ligatures:normal;font-variant-caps:normal;font-variant-numeric:normal;font-feature-settings:normal;text-align:start;writing-mode:lr-tb;text-anchor:start;fill:#4d4d4d;stroke-width:0.26458332px"
           id="path8491" />
        <path
           d="m 72.521328,125.54388 q 0.389466,0 0.389466,0.42334 0,0.4064 -0.389466,1.13453 -0.389467,0.72813 -0.575734,1.18533 -0.321733,0.77894 -0.321733,1.25307 0,0.4572 0.135467,0.6096 0.254,0.27093 0.694266,0.0339 0.440267,-0.254 1.2192,-0.94827 0.795867,-0.7112 1.27,-1.38853 0.06773,-0.0847 0.1524,-0.0339 0.1016,0.0339 0.1016,0.0847 0,0.0339 -0.03387,0.0847 -0.254,0.4572 -0.914399,1.1684 -0.6604,0.7112 -1.27,1.15147 -0.6096,0.42333 -1.202267,0.42333 -0.575733,-0.0169 -0.8128,-0.27093 -0.237067,-0.23707 -0.237067,-0.6096 0,-0.37253 0.06773,-0.7112 0.06773,-0.3556 0.254,-0.8128 0.3048,-0.72813 0.524933,-1.13453 0.237067,-0.4064 0.237067,-0.52494 0,-0.13546 -0.135467,-0.13546 -0.270933,0 -1.032933,0.6604 -0.524934,0.49106 -1.557867,1.86266 -1.016,1.35467 -1.151466,1.43934 -0.6096,0.3048 -0.762,0.3048 -0.1524,0 -0.1524,-0.0508 0,-0.0508 0.03387,-0.1524 0.03387,-0.0847 0.321734,-0.9144 0.3048,-0.82974 0.643466,-1.81187 0.3556,-0.99907 0.423334,-1.20227 0.08467,-0.2032 0.101599,-0.33866 0.03387,-0.1524 0.06773,-0.254 0.03387,-0.1016 0.118533,-0.22014 0.1016,-0.13546 0.254,-0.13546 0.1524,-0.0169 0.389467,0.0339 0.237066,0.0339 0.237066,0.2032 0,0.11854 -0.186266,0.52494 -0.186267,0.38946 -1.0668,2.72626 0.6096,-0.74506 1.540933,-1.71026 0.931333,-0.98214 1.5748,-1.49014 0.643467,-0.4572 1.049867,-0.4572 z"
           style="font-style:normal;font-variant:normal;font-weight:normal;font-stretch:normal;font-size:16.93333244px;font-family:Allura;-inkscape-font-specification:'Allura, Normal';font-variant-ligatures:normal;font-variant-caps:normal;font-variant-numeric:normal;font-feature-settings:normal;text-align:start;writing-mode:lr-tb;text-anchor:start;fill:#4d4d4d;stroke-width:0.26458332px"
           id="path8493" />
        <path
           d="m 77.4185,125.61162 q 1.303867,-0.11854 1.5748,-0.11854 0.287867,0 0.287867,0.0847 0,0.1016 -0.4064,0.22013 -0.389467,0.1016 -1.9304,0.27094 -0.08467,0.1524 -0.2032,0.3556 -0.254,0.4064 -0.270933,0.49106 -0.9652,1.9304 -1.016,2.45534 -0.01693,0.1524 -0.01693,0.38946 0,0.23707 0.135467,0.38947 0.237067,0.27093 0.677333,0.0339 0.440267,-0.23707 1.2192,-0.94827 0.795867,-0.7112 1.286933,-1.38853 0.06773,-0.0847 0.169334,-0.0339 0.254,0.11853 -0.880534,1.33773 -1.083733,1.1684 -1.811866,1.43934 -0.423333,0.1524 -0.7112,0.1524 -0.677333,0 -0.897467,-0.64347 -0.03387,-0.11853 -0.03387,-0.28787 0,-0.59266 0.541866,-1.79493 -0.08467,0.18627 -0.6604,0.84667 -0.1524,0.16933 -0.237066,0 -0.01693,-0.0339 -0.01693,-0.0847 0,-0.0677 0.06773,-0.1524 0.829733,-1.03293 1.303866,-1.74413 0,-0.0169 0.372534,-0.7112 -0.169334,0.0339 -0.3556,0.0339 -0.169334,0 -0.254,-0.1016 -0.08467,-0.11853 -0.01693,-0.27093 0.118534,-0.27093 0.897467,-0.3048 0.01693,-0.0339 0.06773,-0.0339 l 0.846667,-1.5748 q 0.06773,-0.13546 0.1524,-0.27093 0.08467,-0.1524 0.118533,-0.22013 0.0508,-0.0847 0.1016,-0.16934 0.0508,-0.0847 0.08467,-0.11853 0.03387,-0.0339 0.06773,-0.0677 0.06773,-0.1016 0.389467,-0.1016 0.338666,0 0.4572,0.18626 0.0508,0.0677 0.0508,0.23707 0,0.1524 -0.118534,0.3556 -0.118533,0.18627 -0.254,0.27093 -0.135466,0.0847 -0.186266,0.18627 l -0.8128,1.4224 z"
           style="font-style:normal;font-variant:normal;font-weight:normal;font-stretch:normal;font-size:16.93333244px;font-family:Allura;-inkscape-font-specification:'Allura, Normal';font-variant-ligatures:normal;font-variant-caps:normal;font-variant-numeric:normal;font-feature-settings:normal;text-align:start;writing-mode:lr-tb;text-anchor:start;fill:#4d4d4d;stroke-width:0.26458332px"
           id="path8495" />
        <path
           d="m 82.050823,128.49028 q 0.3048,-0.62653 0.3048,-0.9652 0,-0.33866 -0.08467,-0.52493 -0.06773,-0.2032 0.06773,-0.33867 0.1524,-0.13546 0.372533,-0.1016 0.338667,0.0847 0.338667,0.762 0,0.67734 -0.795867,1.778 0.01693,0.4572 0.474133,0.4572 0.4572,0 1.388534,-0.98213 0.440266,-0.508 0.541866,-0.6604 0.118534,-0.1524 0.2032,-0.1016 0.08467,0.0339 0.08467,0.0677 0,0.16934 -0.6096,0.88054 -0.9652,1.18533 -1.710267,1.18533 -0.491066,0 -0.694266,-0.42333 -0.338667,0.3556 -0.6604,0.6604 -0.6604,0.5588 -1.4732,0.5588 -0.4572,0 -0.762,-0.22014 -0.592667,-0.3556 -0.592667,-1.27 0,-0.99906 0.677334,-2.032 0.389466,-0.6096 0.9144,-1.0668 0.829733,-0.72813 1.574799,-0.72813 0.186267,0 0.3556,0.0508 0.508,0.16933 0.508,0.64347 0,0.38946 -0.2032,0.38946 -0.08467,-0.0339 -0.08467,-0.254 0,-0.3048 -0.338667,-0.3048 -0.592667,0 -1.524,1.08374 -0.931333,1.08373 -1.1176,2.1844 -0.03387,0.18626 -0.03387,0.42333 0,0.22013 0.1524,0.52493 0.1524,0.28787 0.5588,0.28787 0.423333,0 0.914399,-0.37253 0.491067,-0.37254 0.880534,-0.94827 l -0.0508,-0.1016 q -0.06773,-0.27093 0.06773,-0.44027 0.135467,-0.16933 0.3556,-0.1016 z"
           style="font-style:normal;font-variant:normal;font-weight:normal;font-stretch:normal;font-size:16.93333244px;font-family:Allura;-inkscape-font-specification:'Allura, Normal';font-variant-ligatures:normal;font-variant-caps:normal;font-variant-numeric:normal;font-feature-settings:normal;text-align:start;writing-mode:lr-tb;text-anchor:start;fill:#4d4d4d;stroke-width:0.26458332px"
           id="path8497" />
        <path
           d="m 89.223148,125.54388 q 0.389467,0 0.389467,0.42334 0,0.4064 -0.389467,1.13453 -0.389467,0.72813 -0.575733,1.18533 -0.321734,0.77894 -0.321734,1.25307 0,0.4572 0.135467,0.6096 0.254,0.27093 0.694267,0.0339 0.440266,-0.254 1.2192,-0.94827 0.795866,-0.7112 1.27,-1.38853 0.06773,-0.0847 0.1524,-0.0339 0.1016,0.0339 0.1016,0.0847 0,0.0339 -0.03387,0.0847 -0.254,0.4572 -0.9144,1.1684 -0.6604,0.7112 -1.27,1.15147 -0.6096,0.42333 -1.202267,0.42333 -0.575733,-0.0169 -0.8128,-0.27093 -0.237066,-0.23707 -0.237066,-0.6096 0,-0.37253 0.06773,-0.7112 0.06773,-0.3556 0.254,-0.8128 0.3048,-0.72813 0.524933,-1.13453 0.237067,-0.4064 0.237067,-0.52494 0,-0.13546 -0.135467,-0.13546 -0.270933,0 -1.032933,0.6604 -0.524933,0.49106 -1.557866,1.86266 -1.016,1.35467 -1.151467,1.43934 -0.6096,0.3048 -0.762,0.3048 -0.1524,0 -0.1524,-0.0508 0,-0.0508 0.03387,-0.1524 0.03387,-0.0847 0.321733,-0.9144 0.3048,-0.82974 0.643467,-1.81187 0.3556,-0.99907 0.423333,-1.20227 0.08467,-0.2032 0.1016,-0.33866 0.03387,-0.1524 0.06773,-0.254 0.03387,-0.1016 0.118534,-0.22014 0.1016,-0.13546 0.254,-0.13546 0.1524,-0.0169 0.389466,0.0339 0.237067,0.0339 0.237067,0.2032 0,0.11854 -0.186267,0.52494 -0.186266,0.38946 -1.0668,2.72626 0.6096,-0.74506 1.540933,-1.71026 0.931334,-0.98214 1.5748,-1.49014 0.643467,-0.4572 1.049867,-0.4572 z"
           style="font-style:normal;font-variant:normal;font-weight:normal;font-stretch:normal;font-size:16.93333244px;font-family:Allura;-inkscape-font-specification:'Allura, Normal';font-variant-ligatures:normal;font-variant-caps:normal;font-variant-numeric:normal;font-feature-settings:normal;text-align:start;writing-mode:lr-tb;text-anchor:start;fill:#4d4d4d;stroke-width:0.26458332px"
           id="path8499" />
      </g>
      <g
         aria-label="Me"
         style="font-style:normal;font-variant:normal;font-weight:normal;font-stretch:normal;font-size:16.93333244px;line-height:6.61458302px;font-family:Allura;-inkscape-font-specification:'Allura, Normal';font-variant-ligatures:normal;font-variant-caps:normal;font-variant-numeric:normal;font-feature-settings:normal;text-align:start;letter-spacing:0px;word-spacing:0px;writing-mode:lr-tb;text-anchor:start;fill:#999999;fill-opacity:1;stroke:none;stroke-width:0.26458332px;stroke-linecap:butt;stroke-linejoin:miter;stroke-opacity:1"
         id="text8431">
        <path
           d="m 96.629558,125.39386 q -1.524,2.86173 -2.878666,2.86173 -0.8636,0 -0.8636,-0.88053 0,-0.52494 0.4064,-1.1684 0.694266,-1.08374 2.150533,-2.65854 1.4732,-1.59173 2.4892,-2.52306 l 0.643467,-2.1844 q -0.846667,0.79586 -2.201334,0.93133 -0.169333,0.0169 -0.186266,-0.1016 0,-0.11853 0.1524,-0.1524 l 0.06773,-0.0169 q 0.728133,-0.0677 1.490133,-0.762 0.778934,-0.69427 1.1684,-1.59174 0.06773,-0.22013 0.592667,-0.2032 0.524935,0 0.507995,0.2032 l -1.168395,2.8956 q 2.302935,-1.94733 3.301995,-1.99813 0.11854,0 0.23707,0 1.33773,0 1.84573,0.88053 0.44027,0.74507 0.44027,1.74414 0,1.49013 -0.9144,4.2672 -0.1524,0.49106 -0.13547,0.508 0.0339,0 0.1016,-0.1016 0.0677,-0.11854 0.2032,-0.33867 0.1524,-0.22013 0.69427,-1.1176 1.94733,-3.26813 3.9624,-5.45253 0.6604,-0.69427 1.3208,-0.69427 0.38947,0 0.59267,0.27093 0.2032,0.27094 0.2032,0.59267 0,0.32173 -0.1524,0.89747 -0.13547,0.57573 -0.8636,2.40453 -0.89747,2.2352 -0.89747,3.6576 0,1.10067 0.6096,1.10067 0.44027,0 1.1684,-0.5588 1.1176,-0.93134 1.79493,-1.84574 0.0847,-0.11853 0.1524,-0.0508 0.0847,0.0677 0.0847,0.11854 0,0.0339 -0.0339,0.0677 -0.32173,0.508 -1.016,1.2192 -1.13453,1.20227 -1.8288,1.4224 -0.33866,0.11853 -0.6604,0.11853 -1.1176,-0.0169 -1.1176,-1.60866 0,-0.82974 0.2032,-1.60867 0.2032,-0.77893 0.32174,-1.20227 0.13546,-0.42333 0.33866,-0.98213 0.2032,-0.57573 0.33867,-0.88053 0.44027,-1.10067 0.54187,-1.3716 0.1016,-0.27094 0.1016,-0.4572 0,-0.2032 -0.1016,-0.27094 -0.1016,-0.0847 -0.27094,-0.0847 -0.16933,0 -0.52493,0.3048 -1.30387,1.1176 -2.9464,3.52213 -1.6256,2.40453 -2.286,3.77613 -0.13547,0.28787 -0.27093,0.28787 -0.13547,0 -0.28787,-0.23707 -0.1524,-0.254 -0.1524,-0.3556 0,-0.11853 0.0169,-0.1524 0.44027,-1.1176 0.62654,-2.3876 0.2032,-1.27 0.2032,-2.0828 0,-2.86173 -1.23614,-2.86173 -1.15146,0 -4.182528,2.77707 -0.1524,0.44026 -0.6604,1.59173 -0.694267,1.50707 -1.236134,2.52307 z m -2.827866,2.286 q 1.049866,0 2.573866,-2.92947 0.846667,-1.6256 1.2192,-2.6416 -0.897466,0.84667 -1.9812,2.0828 -1.083733,1.2192 -1.540933,1.8288 -0.592667,0.79587 -0.592667,1.2192 0,0.44027 0.321734,0.44027 z"
           style="font-style:normal;font-variant:normal;font-weight:normal;font-stretch:normal;font-size:16.93333244px;font-family:Allura;-inkscape-font-specification:'Allura, Normal';font-variant-ligatures:normal;font-variant-caps:normal;font-variant-numeric:normal;font-feature-settings:normal;text-align:start;writing-mode:lr-tb;text-anchor:start;fill:#999999;stroke-width:0.26458332px"
           id="path8502" />
        <path
           d="m 116.1656,121.83786 q 0.9144,0 0.9144,0.88053 0,0.4572 -0.254,0.74507 -0.42334,0.62653 -1.3716,1.10066 -0.94827,0.4572 -1.60867,0.508 -0.23707,0.0169 -0.254,-0.13546 -0.0169,-0.0677 0.0339,-0.0847 0.0677,-0.0169 0.1016,-0.0169 0.38946,-0.0339 0.99906,-0.37254 1.13454,-0.6096 1.65947,-1.25306 0.22013,-0.3048 0.22013,-0.57574 0,-0.28786 -0.27093,-0.28786 -0.22013,0 -0.59267,0.18626 -0.79586,0.37254 -1.6764,1.30387 -0.88053,0.9144 -1.15146,1.79493 -0.0847,0.27094 -0.0847,0.54187 0,0.254 0.22013,0.49107 0.22014,0.23706 0.67734,0.23706 0.508,0 1.1684,-0.27093 1.91346,-0.77893 2.9464,-2.35373 0.1016,-0.13547 0.18626,-0.0508 0.0677,0.0339 0.0677,0.0847 0,0.0508 -0.0508,0.11854 -0.508,0.84666 -1.28694,1.50706 -1.50706,1.28694 -2.92946,1.28694 -1.2192,0 -1.71027,-0.72814 -0.18627,-0.28786 -0.18627,-0.69426 0,-0.4064 0.22014,-0.9652 0.42333,-0.9652 1.81186,-1.9812 1.38854,-1.016 2.20134,-1.016 z"
           style="font-style:normal;font-variant:normal;font-weight:normal;font-stretch:normal;font-size:16.93333244px;font-family:Allura;-inkscape-font-specification:'Allura, Normal';font-variant-ligatures:normal;font-variant-caps:normal;font-variant-numeric:normal;font-feature-settings:normal;text-align:start;writing-mode:lr-tb;text-anchor:start;fill:#999999;stroke-width:0.26458332px"
           id="path8504" />
      </g>
      <path
         inkscape:connector-curvature="0"
         id="path8437"
         d="m 109.84054,128.33683 a 21.864579,9.1029414 0 0 0 -20.188301,5.61456 12.361178,30.028239 85.062435 0 1 18.037931,-4.83485 12.361178,30.028239 85.062435 0 1 7.86665,-0.45234 21.864579,9.1029414 0 0 0 -5.71628,-0.32737 z"
         style="opacity:1;fill:#aad400;fill-opacity:1;stroke:none;stroke-width:0.44795233;stroke-miterlimit:4;stroke-dasharray:none;stroke-opacity:1" />
    </g>
  </g>
</svg>
